<?xml version="1.0" encoding="UTF-8" standalone="no"?>
<svg
   stroke="currentColor"
   fill="none"
   stroke-width="0"
   viewBox="-24 -24 0 0"
   height="0.78899997"
   width="1"
   version="1.1"
   style="font-size:25.6px;text-align:center;inline-size:25.5938px;display:block;fill:none;stroke:#172b4d;stroke-width:0px"
   id="svg173"
   sodipodi:docname="favicon.svg"
   inkscape:export-filename="favicon-dark.png"
   inkscape:export-xdpi="19199.996"
   inkscape:export-ydpi="19199.996"
   inkscape:version="1.2 (dc2aedaf03, 2022-05-15)"
   xmlns:inkscape="http://www.inkscape.org/namespaces/inkscape"
   xmlns:sodipodi="http://sodipodi.sourceforge.net/DTD/sodipodi-0.dtd"
   xmlns="http://www.w3.org/2000/svg"
   xmlns:svg="http://www.w3.org/2000/svg">
  <defs
     id="defs177" />
  <sodipodi:namedview
     id="namedview175"
     pagecolor="#ffffff"
     bordercolor="#000000"
     borderopacity="0.25"
     inkscape:showpageshadow="2"
     inkscape:pageopacity="0.0"
     inkscape:pagecheckerboard="0"
     inkscape:deskcolor="#d1d1d1"
     showgrid="false"
     inkscape:zoom="256"
     inkscape:cx="-1.2871094"
     inkscape:cy="0.64648438"
     inkscape:window-width="1366"
     inkscape:window-height="717"
     inkscape:window-x="0"
     inkscape:window-y="27"
     inkscape:window-maximized="1"
     inkscape:current-layer="svg173" />
  <path
     fill-rule="evenodd"
     clip-rule="evenodd"
     d="m 0.8499995,5e-7 c 0.082845,0 0.1500002,0.0671575 0.1500002,0.15000019 v 0.50000058 c 0,0.082845 -0.067155,0.15000016 -0.1500002,0.15000016 H 0.1500007 C 0.0671577,0.80000143 5e-7,0.73284633 5e-7,0.65000127 V 0.15000069 C 5e-7,0.06715809 0.0671575,5e-7 0.1500007,5e-7 Z m 0.05,0.28123985 H 0.5500042 c -0.02761,0 -0.05779,-0.020986 -0.0674,-0.0468736 L 0.4327141,0.1000006 H 0.1500008 c -0.027615,0 -0.05,0.022386 -0.05,0.05 v 0.50000057 c 0,0.027615 0.022386,0.05 0.05,0.05 h 0.6999988 c 0.027615,0 0.05,-0.022385 0.05,-0.05 z"
     fill="#000000"
     id="path171"
     style="fill:#ffffff;stroke-width:0px" />
</svg>
